<svg width="512" height="512" viewBox="0 0 512 512" fill="none" xmlns="http://www.w3.org/2000/svg">
<path d="M400.268 175.599C398.869 172.595 395.856 170.667 392.537 170.667H291.417L391.214 13.099C392.878 10.471 392.98 7.143 391.479 4.421C389.977 1.69 387.109 0 384.003 0H247.47C244.236 0 241.283 1.826 239.833 4.719L111.833 260.719C110.51 263.356 110.655 266.496 112.208 269.013C113.77 271.53 116.509 273.066 119.47 273.066H207.218L111.602 500.155C109.972 504.038 111.423 508.543 115.015 510.745C116.397 511.59 117.933 511.999 119.461 511.999C121.91 511.999 124.325 510.949 125.998 508.97L399.065 184.703C401.206 182.161 401.667 178.611 400.268 175.599Z" fill="#FAFAFA"/>
</svg>
