<svg width="36" height="36" viewBox="0 0 36 36" fill="none" xmlns="http://www.w3.org/2000/svg">
<g clip-path="url(#clip0)">
<path d="M26.776 12.687H19.25C19.93 12.687 20.483 12.134 20.483 11.453C20.483 10.772 19.929 10.223 19.25 10.223H16.172C15.492 10.223 14.94 10.772 14.94 11.453C14.94 12.134 15.493 12.687 16.172 12.687H8.64498C6.55098 12.687 4.81698 14.564 4.47998 16.562H30.944C30.605 14.563 28.871 12.687 26.776 12.687Z" fill="#FAFAFA"/>
<path d="M31.005 18.677V18.325H4.479H4.417H0V20.087H4.417V31.005C4.417 33.343 6.311 35.234 8.645 35.234H26.777C29.113 35.234 31.006 33.343 31.006 31.005V20.439H35.235V18.677H31.005Z" fill="#FAFAFA"/>
<path d="M11.2401 4.235C11.3631 4.397 11.4941 4.553 11.6311 4.7L11.9721 5.042C12.1881 5.259 12.3891 5.476 12.5491 5.671C12.6291 5.769 12.6951 5.862 12.7441 5.939C12.7911 6.015 12.8341 6.074 12.8441 6.162C12.8561 6.256 12.8071 6.383 12.7111 6.51C12.6151 6.635 12.4811 6.756 12.3241 6.877C12.5101 6.949 12.7131 6.973 12.9291 6.947C13.1441 6.922 13.3801 6.826 13.5771 6.621C13.7721 6.416 13.8811 6.113 13.8981 5.846C13.9171 5.576 13.8761 5.332 13.8151 5.112C13.6921 4.674 13.4881 4.319 13.2701 3.993C13.1611 3.833 13.0261 3.671 12.9301 3.546C12.8341 3.433 12.7451 3.317 12.6641 3.202C12.3341 2.743 12.1031 2.329 12.0171 1.843C11.9271 1.351 12.0271 0.721999 12.3241 0.000999451C11.5531 0.162999 10.8671 0.807999 10.6431 1.71C10.5321 2.155 10.5561 2.644 10.6751 3.073C10.7931 3.511 11.0021 3.897 11.2401 4.235Z" fill="#FAFAFA"/>
<path d="M15.8091 4.235C15.9321 4.397 16.0641 4.553 16.2001 4.7L16.5401 5.042C16.7561 5.259 16.9561 5.476 17.1201 5.671C17.1971 5.769 17.2631 5.862 17.3131 5.939C17.3621 6.015 17.4031 6.074 17.4111 6.162C17.4241 6.256 17.3761 6.383 17.2801 6.51C17.1851 6.635 17.0501 6.756 16.8911 6.877C17.0791 6.949 17.2831 6.973 17.4981 6.947C17.7121 6.922 17.9511 6.826 18.1461 6.621C18.3431 6.416 18.4501 6.113 18.4681 5.846C18.4871 5.576 18.4471 5.332 18.3861 5.112C18.2611 4.674 18.0561 4.319 17.8381 3.993C17.7311 3.833 17.5951 3.671 17.4991 3.546C17.4051 3.433 17.3141 3.317 17.2351 3.202C16.9041 2.743 16.6721 2.329 16.5861 1.843C16.4961 1.353 16.5941 0.723998 16.8901 0.00299835C16.1201 0.164998 15.4351 0.809998 15.2121 1.712C15.1011 2.157 15.1241 2.646 15.2431 3.075C15.3631 3.511 15.5681 3.897 15.8091 4.235Z" fill="#FAFAFA"/>
<path d="M19.9721 4.235C20.0941 4.397 20.2251 4.553 20.3621 4.7L20.7031 5.042C20.9191 5.259 21.1181 5.476 21.2801 5.671C21.3601 5.769 21.4261 5.862 21.4751 5.939C21.5221 6.015 21.5631 6.074 21.5751 6.162C21.5881 6.256 21.5381 6.383 21.4421 6.51C21.3471 6.635 21.2121 6.756 21.0531 6.877C21.2411 6.949 21.4451 6.973 21.6581 6.947C21.8731 6.922 22.1111 6.826 22.3081 6.621C22.5031 6.416 22.6111 6.113 22.6281 5.846C22.6481 5.576 22.6071 5.332 22.5461 5.112C22.4231 4.674 22.2201 4.319 22.0011 3.993C21.8921 3.833 21.7571 3.671 21.6611 3.546C21.5651 3.433 21.4751 3.317 21.3951 3.202C21.0651 2.743 20.8341 2.329 20.7491 1.843C20.6581 1.351 20.7581 0.721999 21.0531 0.000999451C20.2831 0.162999 19.5961 0.807999 19.3741 1.71C19.2641 2.155 19.2871 2.644 19.4061 3.073C19.5241 3.511 19.7311 3.897 19.9721 4.235Z" fill="#FAFAFA"/>
</g>
<defs>
<clipPath id="clip0">
<rect width="35.235" height="35.235" fill="white"/>
</clipPath>
</defs>
</svg>
